Simulation
nRows=28
nColumns=15
endheader
time  TH_x TH_y TH_z SC_y  SC_z  SC_x  AC_y  AC_z  AC_x  GH_y  GH_z  GH_yy  EL_x  PS_y
1.55  0.000000  0.000000  0.000000  -35.7568135905098  7.555588948693644  24.965426316489886  60.06850113381378  6.807479480138461  -3.9403831679880152  16.549621517966116  54.787438411786304  -17.672887596594826  17.96897996846172  0.000000
1.581  0.000000  0.000000  0.000000  -36.22024233264194  7.850442707357753  25.073270216739818  60.23813127529943  7.291539468052036  -3.2238627426436293  16.10272328309149  55.31115706096055  -17.501394238442177  17.951961408863426  0.000000
1.612  0.000000  0.000000  0.000000  -36.643401624655944  8.112419995287109  25.135832325827575  60.383269380010205  7.748912341067694  -2.564875927728661  15.711313294122771  55.763880436302465  -17.351001843357487  17.940379828562875  0.000000
1.643  0.000000  0.000000  0.000000  -37.02204369410222  8.33668446245511  25.15726643137163  60.50491076070128  8.171070910039488  -1.9776019307335486  15.38285312660883  56.13632126442773  -17.223908675446573  17.936407356085635  0.000000
1.674  0.000000  0.000000  0.000000  -37.35499310589263  8.520842848766888  25.14260668998929  60.603504828841245  8.550311894829356  -1.4738002988192667  15.127011902249826  56.417375661575775  -17.123075168493255  17.941003814466853  0.000000
1.705  0.000000  0.000000  0.000000  -37.641274375251136  8.66478441255284  25.096368710800075  60.67813234488314  8.879098203755449  -1.063153525636265  14.954444631836118  56.596698374232616  -17.0513194559183  17.953157445647502  0.000000
1.736  0.000000  0.000000  0.000000  -37.87722803818031  8.769331950968738  25.021016599512738  60.72659966787866  9.149748714526462  -0.7538666173933751  14.87448996044708  56.667244222847515  -17.011970877643414  17.970327165345868  0.000000
1.767  0.000000  0.000000  0.000000  -38.054966739194484  8.834896048881458  24.91637620134441  60.746244156158845  9.354706891235976  -0.5529108997136886  14.892814272323719  56.62632829243281  -17.010311698546822  17.989409093380402  0.000000
1.798  0.000000  0.000000  0.000000  -38.16319850607669  8.860474016340744  24.78053178063668  60.73515650053934  9.487533793338663  -0.46584440308697  15.01012792234993  56.47465584563029  -17.0547525960265  18.007646258572656  0.000000
1.829  0.000000  0.000000  0.000000  -38.189963301260825  8.843123863090534  24.611853210387782  60.69315374958081  9.544228062802285  -0.4963457752077781  15.222262933154163  56.213877472589836  -17.15705261207317  18.023335526375373  0.000000
1.8599999999999999  0.000000  0.000000  0.000000  -38.12592364615802  8.77830067746567  24.410918324889863  60.622227973825055  9.524040865550763  -0.6457479041379128  15.52132941604463  55.8444014891878  -17.33111665855547  18.036204519416057  0.000000
1.891  0.000000  0.000000  0.000000  -37.96698121784808  8.661086127391965  24.181199843898405  60.52622580684387  9.428952775134656  -0.9126480682521756  15.897570129578057  55.365245754325635  -17.589977007060863  18.04755605577003  0.000000
1.922  0.000000  0.000000  0.000000  -37.715504026902835  8.488137276955817  23.92825362474477  60.40959183008369  9.262147241304966  -1.2928650306127984  16.34156512792722  54.77586463611908  -17.94148594617581  18.06016990195658  0.000000
1.953  0.000000  0.000000  0.000000  -37.380146081335404  8.25937722022545  23.65807422844286  60.27548315072434  9.026510622360064  -1.779704109622775  16.84628159278985  54.078639810296025  -18.384290094559507  18.07800208590155  0.000000
1.984  0.000000  0.000000  0.000000  -36.974492135454376  7.9782812380660335  23.375699545719936  60.124708466641465  8.724247863843862  -2.3644056359853205  17.407758266949642  53.28041695046083  -18.906596495330373  18.10562629130761  0.000000
2.015  0.000000  0.000000  0.000000  -36.515006414997835  7.651056925975089  23.084668889637573  59.956067445698565  8.357647364094237  -3.036540698095376  18.024128067186346  52.392284338721936  -19.488650337475505  18.147248136269933  0.000000
2.046  0.000000  0.000000  0.000000  -36.01904630230575  7.284832594486106  22.787359842052542  59.768092024958136  7.9300746244054245  -3.784364469914482  18.693440897880755  51.42821420532746  -20.107870394655  18.205689577168187  0.000000
2.077  0.000000  0.000000  0.000000  -35.5030315841648  6.8856404529874995  22.485566637654905  59.560638457829  7.446512398017806  -4.595149534978408  19.411610946748613  50.40352658657126  -20.743930524957204  18.28160839724342  0.000000
2.108  0.000000  0.000000  0.000000  -34.981064333711316  6.457823697806426  22.180476483377348  59.3353374434059  6.913566220118651  -5.455547037456438  20.171431299951607  49.33363595080514  -21.381403795543438  18.373345278048323  0.000000
2.139  0.000000  0.000000  0.000000  -34.46486101276206  6.0044051190799745  21.87190737877608  59.09514484147031  6.338918004322227  -6.351789957522978  20.963035218677245  48.233713178125946  -22.009327733253997  18.477692233919868  0.000000
2.17  0.000000  0.000000  0.000000  -33.964024219381145  5.527941061369335  21.557309637226606  58.84351248693196  5.730687166586068  -7.269550077011499  21.774742536996264  47.118642846598284  -22.619066330841083  18.590855793736175  0.000000
2.201  0.000000  0.000000  0.000000  -33.48631297806655  5.031425233329927  21.23089515665461  58.58377037048348  5.097156810347352  -8.19321746174983  22.593789598073794  46.00278508735413  -23.20193874347122  18.708865248276606  0.000000
2.232  0.000000  0.000000  0.000000  -33.03899892605794  4.518821628730959  20.883156001935216  58.31942600947517  4.446817343547245  -9.1048477233186  23.407172609596756  44.89952572818364  -23.747554412594837  18.8282499937243  0.000000
2.263  0.000000  0.000000  0.000000  -32.62983234028883  3.995351614880643  20.501181818597214  58.054501207752274  3.7885871381426917  -9.983669516131062  24.20205646896903  43.82026817300962  -24.243455666087602  18.945990020675353  0.000000
2.294  0.000000  0.000000  0.000000  -32.26654599420484  3.4673595704879987  20.06980921681972  57.79337612704955  3.1324203949493694  -10.806623861197112  24.965775705885644  42.77262635429918  -24.676217954277398  19.05806120525881  0.000000
2.325  0.000000  0.000000  0.000000  -31.956063716570014  2.9419801863298742  19.573378055459735  57.540012925782925  2.489910505614627  -11.550335971239592  25.686826971608774  41.758450241635984  -25.033103639262904  19.160005668945224  0.000000
2.356  0.000000  0.000000  0.000000  -31.703512640491788  2.4266602260221464  18.99835111207447  57.2969391763698  1.8740103589517587  -12.194065059453463  26.356816225396337  40.7724408025474  -25.30382987391343  19.248814298049485  0.000000
2.387  0.000000  0.000000  0.000000  -31.510598621851383  1.9284989632574328  18.336102136988767  57.06452604510143  1.2980475016873554  -12.722565946824067  26.97183742150915  39.801760283569365  -25.482679507160228  19.323528566550404  0.000000
